<svg width="1022" height="1022" viewBox="0 0 1022 1022" fill="none" xmlns="http://www.w3.org/2000/svg">
<g clip-path="url(#clip0_5_73)">
<circle cx="511" cy="511" r="511" fill="white"/>
<path d="M191.418 678.88L163.095 573.12L183.097 509.117L285.253 487.114L463.888 512.788H744.817V678.88H191.418Z" fill="#C3C3C3"/>
<path d="M690.682 519.393C752.421 519.393 802.457 569.238 802.458 630.709C802.458 692.18 752.421 742.025 690.682 742.026C628.943 742.026 578.907 692.18 578.907 630.709C578.907 569.238 628.943 519.393 690.682 519.393Z" stroke="#BF00FF" stroke-width="4"/>
<path d="M288.798 519.393C350.538 519.393 400.574 569.238 400.574 630.709C400.574 692.18 350.538 742.025 288.798 742.026C227.059 742.026 177.023 692.18 177.023 630.709C177.023 569.238 227.059 519.393 288.798 519.393Z" stroke="#BF00FF" stroke-width="4"/>
<path d="M330.302 360.817L391.095 447.672H402.405L464.138 512.416H747.255V569.718H402.405V552.876C377.592 516.765 335.999 493.084 288.874 493.084C233.643 493.084 186.008 525.612 164.083 572.555H111.482V447.672H219.446L233.45 383.704L233.477 383.585L233.554 383.492C236.701 379.685 242.151 373.981 248.286 369.224C254.397 364.487 261.293 360.604 267.313 360.604H330.153L330.302 360.817Z" fill="#FFC400"/>
<path d="M242.081 386.723L229.158 444.907H382.388L327.003 366.916H271.619C261.281 366.916 247.619 380.121 242.081 386.723Z" fill="#4B4B4B"/>
<path d="M85.2285 279.504C164.7 277.612 323.644 274.963 323.644 279.504C323.644 284.046 335.47 294.641 341.383 299.371H824.598L936 372.457L465.557 506.566L341.383 333.431L85.2285 299.371V279.504Z" fill="#FFC400"/>
<circle cx="288.875" cy="630.74" r="113.531" fill="#524847"/>
<circle cx="288.875" cy="630.74" r="52.508" fill="#FFC400"/>
<ellipse cx="288.165" cy="630.74" rx="47.541" ry="48.2506" fill="#EEB700"/>
<ellipse cx="288.165" cy="630.74" rx="33.3497" ry="34.0592" fill="#4E4341"/>
<path d="M286.194 524.305C286.904 521.466 291.871 517.209 291.871 517.209L286.194 539.915C286.194 539.915 285.484 527.143 286.194 524.305Z" fill="#363636"/>
<path d="M291.555 737.175C290.846 740.013 285.879 744.271 285.879 744.271L291.555 721.564C291.555 721.564 292.265 734.337 291.555 737.175Z" fill="#363636"/>
<path d="M211.718 557.374C210.213 554.866 210.715 548.343 210.715 548.343L222.756 568.413C222.756 568.413 213.223 559.883 211.718 557.374Z" fill="#363636"/>
<path d="M366.031 704.105C367.536 706.614 367.034 713.137 367.034 713.137L354.993 693.067C354.993 693.067 364.526 701.597 366.031 704.105Z" fill="#363636"/>
<path d="M182.439 633.42C179.601 632.711 175.344 627.744 175.344 627.744L198.05 633.42C198.05 633.42 185.278 634.13 182.439 633.42Z" fill="#363636"/>
<path d="M395.31 628.059C398.148 628.769 402.405 633.736 402.405 633.736L379.699 628.059C379.699 628.059 392.471 627.35 395.31 628.059Z" fill="#363636"/>
<path d="M215.509 707.896C213 709.401 206.478 708.9 206.478 708.9L226.547 696.858C226.547 696.858 218.018 706.391 215.509 707.896Z" fill="#363636"/>
<path d="M362.24 553.583C364.749 552.078 371.271 552.58 371.271 552.58L351.202 564.622C351.202 564.622 359.731 555.089 362.24 553.583Z" fill="#363636"/>
<circle cx="690.49" cy="630.74" r="113.531" fill="#524847"/>
<circle cx="690.49" cy="630.74" r="52.508" fill="#FFC400"/>
<ellipse cx="689.78" cy="630.74" rx="47.541" ry="48.2506" fill="#EEB700"/>
<ellipse cx="689.78" cy="630.74" rx="33.3497" ry="34.0592" fill="#4E4341"/>
<path d="M687.809 524.305C688.519 521.466 693.486 517.209 693.486 517.209L687.809 539.915C687.809 539.915 687.099 527.143 687.809 524.305Z" fill="#363636"/>
<path d="M693.17 737.175C692.461 740.013 687.494 744.271 687.494 744.271L693.17 721.564C693.17 721.564 693.88 734.337 693.17 737.175Z" fill="#363636"/>
<path d="M613.333 557.374C611.828 554.866 612.33 548.343 612.33 548.343L624.371 568.413C624.371 568.413 614.838 559.883 613.333 557.374Z" fill="#363636"/>
<path d="M767.646 704.105C769.151 706.614 768.649 713.137 768.649 713.137L756.608 693.067C756.608 693.067 766.141 701.597 767.646 704.105Z" fill="#363636"/>
<path d="M584.054 633.42C581.216 632.711 576.959 627.744 576.959 627.744L599.665 633.42C599.665 633.42 586.893 634.13 584.054 633.42Z" fill="#363636"/>
<path d="M796.925 628.059C799.763 628.769 804.02 633.736 804.02 633.736L781.314 628.059C781.314 628.059 794.086 627.35 796.925 628.059Z" fill="#363636"/>
<path d="M617.124 707.896C614.615 709.401 608.093 708.9 608.093 708.9L628.162 696.858C628.162 696.858 619.633 706.391 617.124 707.896Z" fill="#363636"/>
<path d="M763.855 553.583C766.364 552.078 772.886 552.58 772.886 552.58L752.817 564.622C752.817 564.622 761.346 555.089 763.855 553.583Z" fill="#363636"/>
</g>
<defs>
<clipPath id="clip0_5_73">
<rect width="1022" height="1022" fill="white"/>
</clipPath>
</defs>
</svg>
