<svg width="1022" height="1022" viewBox="0 0 1022 1022" fill="none" xmlns="http://www.w3.org/2000/svg">
<g clip-path="url(#clip0_5_73)">
<rect width="1022" height="1022" fill="white"/>
<path d="M210.733 687L179.864 571.736L201.663 501.981L313 478L507.689 505.981H813.864V687H210.733Z" fill="#C3C3C3"/>
<path d="M754.864 513C822.251 513 876.864 567.405 876.864 634.5C876.864 701.595 822.251 756 754.864 756C687.478 756 632.864 701.595 632.864 634.5C632.864 567.405 687.478 513 754.864 513Z" stroke="#BF00FF" stroke-width="4"/>
<path d="M316.864 513C384.251 513 438.864 567.405 438.864 634.5C438.864 701.595 384.251 756 316.864 756C249.478 756 194.864 701.595 194.864 634.5C194.864 567.405 249.478 513 316.864 513Z" stroke="#BF00FF" stroke-width="4"/>
<path d="M362.061 340.379L428.299 435.013H440.681L507.961 505.575H816.521V568.026H440.681V549.67C413.637 510.315 368.307 484.506 316.947 484.506C256.753 484.506 204.837 519.957 180.941 571.119H123.613V435.013H241.325L256.586 365.306L256.611 365.188L256.688 365.094C260.117 360.947 266.054 354.733 272.738 349.551C279.397 344.388 286.903 340.166 293.449 340.166H361.911L362.061 340.379Z" fill="#FFC400"/>
<path d="M265.949 368.587L251.864 432H418.864L358.503 347H298.141C286.874 347 271.985 361.392 265.949 368.587Z" fill="#4B4B4B"/>
<path d="M95 251.732C181.611 249.67 354.832 246.784 354.841 251.732C354.841 256.682 367.729 268.23 374.174 273.386H900.814L1022.23 353.04L509.508 499.2L374.174 310.506L95 273.386V251.732Z" fill="#FFC400"/>
<circle cx="316.947" cy="634.533" r="123.734" fill="#524847"/>
<circle cx="316.947" cy="634.533" r="57.2268" fill="#FFC400"/>
<ellipse cx="316.174" cy="634.533" rx="51.8134" ry="52.5867" fill="#EEB700"/>
<ellipse cx="316.174" cy="634.533" rx="36.3467" ry="37.1201" fill="#4E4341"/>
<path d="M314.026 518.533C314.799 515.44 320.213 510.8 320.213 510.8L314.026 535.547C314.026 535.547 313.252 521.627 314.026 518.533Z" fill="#363636"/>
<path d="M319.869 750.534C319.095 753.627 313.682 758.267 313.682 758.267L319.869 733.52C319.869 733.52 320.642 747.44 319.869 750.534Z" fill="#363636"/>
<path d="M232.857 554.575C231.216 551.841 231.763 544.732 231.763 544.732L244.887 566.605C244.887 566.605 234.497 557.309 232.857 554.575Z" fill="#363636"/>
<path d="M401.037 714.492C402.678 717.226 402.131 724.335 402.131 724.335L389.007 702.462C389.007 702.462 399.397 711.758 401.037 714.492Z" fill="#363636"/>
<path d="M200.947 637.455C197.854 636.681 193.214 631.268 193.214 631.268L217.96 637.455C217.96 637.455 204.04 638.228 200.947 637.455Z" fill="#363636"/>
<path d="M432.947 631.612C436.041 632.385 440.681 637.799 440.681 637.799L415.934 631.612C415.934 631.612 429.854 630.838 432.947 631.612Z" fill="#363636"/>
<path d="M236.988 718.624C234.254 720.264 227.146 719.717 227.146 719.717L249.019 706.593C249.019 706.593 239.723 716.983 236.988 718.624Z" fill="#363636"/>
<path d="M396.906 550.443C399.64 548.803 406.749 549.349 406.749 549.349L384.876 562.473C384.876 562.473 394.172 552.084 396.906 550.443Z" fill="#363636"/>
<circle cx="754.655" cy="634.533" r="123.734" fill="#524847"/>
<circle cx="754.654" cy="634.533" r="57.2268" fill="#FFC400"/>
<ellipse cx="753.881" cy="634.533" rx="51.8134" ry="52.5867" fill="#EEB700"/>
<ellipse cx="753.881" cy="634.533" rx="36.3467" ry="37.1201" fill="#4E4341"/>
<path d="M751.733 518.533C752.506 515.44 757.92 510.8 757.92 510.8L751.733 535.547C751.733 535.547 750.96 521.627 751.733 518.533Z" fill="#363636"/>
<path d="M757.576 750.534C756.803 753.627 751.389 758.267 751.389 758.267L757.576 733.52C757.576 733.52 758.349 747.44 757.576 750.534Z" fill="#363636"/>
<path d="M670.564 554.575C668.924 551.841 669.471 544.732 669.471 544.732L682.595 566.605C682.595 566.605 672.205 557.309 670.564 554.575Z" fill="#363636"/>
<path d="M838.745 714.492C840.385 717.226 839.839 724.335 839.839 724.335L826.715 702.462C826.715 702.462 837.104 711.758 838.745 714.492Z" fill="#363636"/>
<path d="M638.654 637.455C635.561 636.681 630.921 631.268 630.921 631.268L655.668 637.455C655.668 637.455 641.748 638.228 638.654 637.455Z" fill="#363636"/>
<path d="M870.655 631.612C873.748 632.385 878.388 637.799 878.388 637.799L853.641 631.612C853.641 631.612 867.561 630.838 870.655 631.612Z" fill="#363636"/>
<path d="M674.696 718.624C671.962 720.264 664.853 719.717 664.853 719.717L686.726 706.593C686.726 706.593 677.43 716.983 674.696 718.624Z" fill="#363636"/>
<path d="M834.613 550.443C837.347 548.803 844.456 549.349 844.456 549.349L822.583 562.473C822.583 562.473 831.879 552.084 834.613 550.443Z" fill="#363636"/>
</g>
<defs>
<clipPath id="clip0_5_73">
<rect width="1022" height="1022" fill="white"/>
</clipPath>
</defs>
</svg>
